<?xml version="1.0" encoding="utf-8"?>
<!-- Generator: Adobe Illustrator 16.0.0, SVG Export Plug-In . SVG Version: 6.00 Build 0)  -->
<!DOCTYPE svg PUBLIC "-//W3C//DTD SVG 1.1//EN" "http://www.w3.org/Graphics/SVG/1.1/DTD/svg11.dtd">
<svg version="1.1" id="T_1_" xmlns="http://www.w3.org/2000/svg" xmlns:xlink="http://www.w3.org/1999/xlink" x="0px" y="0px"
	 width="108px" height="108px" viewBox="0 0 108 108" enable-background="new 0 0 108 108" xml:space="preserve">
<path fill="#FFFFFF" d="M75.465,56.657c-0.574,4.335-2.423,8.265-5.158,11.406l2.288,2.286l-2.618,2.618l-2.33-2.328
	c-3.123,2.552-6.965,4.257-11.18,4.756v4.795h-4.934v-4.765c-4.248-0.455-8.127-2.135-11.285-4.675l-2.3,2.3l-2.63-2.63l2.238-2.239
	c-2.791-3.16-4.681-7.135-5.263-11.525H28v-4.934h4.194c0.413-4.424,2.149-8.463,4.807-11.72l-1.607-1.606l2.62-2.619l1.567,1.567
	c3.271-2.851,7.402-4.739,11.952-5.227v-4.309h4.934v4.336c4.509,0.534,8.592,2.447,11.824,5.301l1.749-1.749l2.631,2.629
	l-1.812,1.811c2.599,3.233,4.296,7.219,4.703,11.584H80v4.934L75.465,56.657L75.465,56.657z M62.935,48.063l-2.631-2.63l2.576-2.575
	c-1.815-1.499-4.004-2.562-6.413-3.006v4.658h-4.934v-4.7c-2.451,0.409-4.69,1.445-6.542,2.941l2.719,2.719l-2.62,2.619
	l-2.654-2.654c-1.324,1.816-2.222,3.96-2.56,6.286h4.825v4.934h-4.685c0.475,2.293,1.512,4.377,2.95,6.116l2.087-2.088l2.631,2.631
	l-1.999,1.999c1.708,1.214,3.696,2.06,5.849,2.418v-4.243h4.934v4.2c2.119-0.393,4.074-1.256,5.75-2.479l-1.937-1.937l2.619-2.618
	l1.993,1.993c1.386-1.714,2.386-3.753,2.849-5.993h-4.443v-4.934h4.59c-0.329-2.269-1.196-4.36-2.467-6.146L62.935,48.063z"/>
</svg>
